<svg width="22" height="21" viewBox="0 0 22 21" fill="none" xmlns="http://www.w3.org/2000/svg">
<path d="M12.0755 18.8382C14.1905 18.569 16.1236 17.5047 17.482 15.8615C18.8404 14.2183 19.5221 12.1194 19.3886 9.99163C19.2551 7.86381 18.3164 5.86666 16.7632 4.40611C15.2101 2.94556 13.1591 2.13121 11.0271 2.12856C8.89248 2.12697 6.83758 2.93934 5.2811 4.40013C3.72462 5.86093 2.78368 7.86023 2.65001 9.99065C2.51634 12.1211 3.2 14.2223 4.56168 15.8662C5.92337 17.5101 7.86061 18.5729 9.97868 18.8382V12.6127H7.88186V10.5159H9.97868V8.78179C9.97868 7.38006 10.1255 6.87158 10.398 6.35891C10.6666 5.85167 11.0816 5.43703 11.589 5.16896C11.9895 4.95403 12.4875 4.82508 13.3577 4.76951C13.7026 4.7475 14.1493 4.77476 14.6976 4.85339V6.84537H14.1723C13.2109 6.84537 12.8136 6.89045 12.5766 7.01731C12.4353 7.09002 12.3202 7.20513 12.2474 7.34651C12.1216 7.58345 12.0755 7.8183 12.0755 8.78074V10.5159H14.6965L14.1723 12.6127H12.0755V18.8382ZM11.0271 21C5.23671 21 0.542969 16.3062 0.542969 10.5159C0.542969 4.72548 5.23671 0.0317383 11.0271 0.0317383C16.8175 0.0317383 21.5112 4.72548 21.5112 10.5159C21.5112 16.3062 16.8175 21 11.0271 21Z" fill="#333333"/>
</svg>
