<svg width="22" height="21" viewBox="0 0 22 21" fill="none" xmlns="http://www.w3.org/2000/svg">
<g clip-path="url(#clip0)">
<path d="M10.9586 1.92059C13.7617 1.92059 14.0932 1.93064 15.1984 1.98087C16.2232 2.03111 16.7758 2.20191 17.1476 2.34257C17.6399 2.53346 17.9815 2.76454 18.3532 3.12624C18.725 3.49798 18.946 3.83958 19.1369 4.33189C19.2775 4.70363 19.4483 5.25622 19.4986 6.28102C19.5488 7.3862 19.5589 7.71775 19.5589 10.5209C19.5589 13.324 19.5488 13.6556 19.4986 14.7608C19.4483 15.7856 19.2775 16.3381 19.1369 16.7099C18.946 17.2022 18.7149 17.5438 18.3532 17.9155C17.9915 18.2772 17.6399 18.5083 17.1476 18.6992C16.7758 18.8399 16.2232 19.0107 15.1984 19.0609C14.0932 19.1111 13.7617 19.1212 10.9586 19.1212C8.15543 19.1212 7.82387 19.1111 6.7187 19.0609C5.69389 19.0107 5.1413 18.8399 4.76956 18.6992C4.27726 18.5083 3.93566 18.2772 3.56391 17.9155C3.19217 17.5438 2.97114 17.2022 2.78024 16.7099C2.63958 16.3381 2.46878 15.7856 2.41855 14.7608C2.36831 13.6556 2.35826 13.324 2.35826 10.5209C2.35826 7.71775 2.36831 7.3862 2.41855 6.28102C2.47883 5.25622 2.64963 4.70363 2.79029 4.33189C2.98118 3.83958 3.21227 3.49798 3.57396 3.12624C3.9457 2.7545 4.2873 2.53346 4.77961 2.34257C5.15135 2.20191 5.70394 2.03111 6.72874 1.98087C7.83392 1.93064 8.16547 1.92059 10.9586 1.92059ZM10.9586 0.0317383C8.11524 0.0317383 7.76359 0.0417854 6.63832 0.0920207C5.52309 0.142256 4.75952 0.323103 4.09641 0.584327C3.40316 0.855599 2.82043 1.20725 2.2377 1.78998C1.65497 2.37271 1.29327 2.95544 1.03205 3.64869C0.770827 4.31179 0.589979 5.07537 0.539744 6.1906C0.489509 7.31587 0.479462 7.66752 0.479462 10.5108C0.479462 13.3542 0.489509 13.7159 0.539744 14.8311C0.589979 15.9463 0.770827 16.7099 1.022 17.373C1.29327 18.0662 1.64492 18.649 2.22765 19.2317C2.81038 19.8144 3.39311 20.1761 4.08636 20.4373C4.74947 20.6986 5.51305 20.8694 6.62827 20.9196C7.7435 20.9698 8.10519 20.9799 10.9485 20.9799C13.7918 20.9799 14.1535 20.9698 15.2688 20.9196C16.384 20.8694 17.1476 20.6885 17.8107 20.4373C18.5039 20.1661 19.0866 19.8144 19.6694 19.2317C20.2521 18.649 20.6138 18.0662 20.875 17.373C21.1362 16.7099 21.3071 15.9463 21.3573 14.8311C21.4075 13.7159 21.4176 13.3542 21.4176 10.5108C21.4176 7.66752 21.4075 7.30582 21.3573 6.1906C21.3071 5.07537 21.1262 4.31179 20.875 3.64869C20.6038 2.95544 20.2521 2.37271 19.6694 1.78998C19.0866 1.20725 18.5039 0.845551 17.8107 0.584327C17.1476 0.323103 16.384 0.152303 15.2688 0.0920207C14.1636 0.0417854 13.8119 0.0317383 10.9586 0.0317383Z" fill="#333333"/>
<path d="M10.9584 5.13574C7.98442 5.13574 5.57312 7.54704 5.57312 10.521C5.57312 13.4949 7.98442 15.9062 10.9584 15.9062C13.9323 15.9062 16.3436 13.4949 16.3436 10.521C16.3436 7.54704 13.9323 5.13574 10.9584 5.13574ZM10.9584 14.0073C9.02931 14.0073 7.46197 12.44 7.46197 10.5109C7.46197 8.58189 9.02931 7.01455 10.9584 7.01455C12.8874 7.01455 14.4547 8.58189 14.4547 10.5109C14.4547 12.45 12.8974 14.0073 10.9584 14.0073Z" fill="#333333"/>
<path d="M17.8206 4.91458C17.8206 5.60782 17.258 6.17046 16.5648 6.17046C15.8715 6.17046 15.3089 5.60782 15.3089 4.91458C15.3089 4.22133 15.8715 3.65869 16.5648 3.65869C17.258 3.65869 17.8206 4.22133 17.8206 4.91458Z" fill="#333333"/>
</g>
<defs>
<clipPath id="clip0">
<rect x="0.479462" y="0.0317383" width="20.9682" height="20.9682" fill="white"/>
</clipPath>
</defs>
</svg>
