<svg width="22" height="21" viewBox="0 0 22 21" fill="none" xmlns="http://www.w3.org/2000/svg">
<path d="M10.8284 0.0317383C5.04637 0.0317383 0.344238 4.73256 0.344238 10.5159C0.344238 16.2992 5.04506 21 10.8284 21C16.6117 21 21.3125 16.2979 21.3125 10.5159C21.3125 4.73387 16.6104 0.0317383 10.8284 0.0317383ZM10.8284 19.599C9.91633 19.5993 9.00941 19.4628 8.13787 19.1941C8.50613 18.5926 9.0631 17.6005 9.26754 16.8142C9.37762 16.3883 9.83237 14.6558 9.83237 14.6558C10.1272 15.2206 10.9961 15.7003 11.9122 15.7003C14.6524 15.7003 16.6261 13.1814 16.6261 10.048C16.6261 7.04562 14.1767 4.80201 11.0276 4.80201C7.10781 4.80201 5.02802 7.43484 5.02802 10.2983C5.02802 11.6298 5.73701 13.2876 6.8706 13.8157C7.04228 13.8983 7.13271 13.8603 7.17333 13.6926C7.20217 13.5654 7.35812 12.9508 7.42757 12.6612C7.44024 12.6158 7.44124 12.568 7.43047 12.5222C7.4197 12.4764 7.39751 12.434 7.36598 12.3991C6.98986 11.9443 6.68975 11.1043 6.68975 10.3271C6.68975 8.32468 8.20471 6.38381 10.789 6.38381C13.0209 6.38381 14.5817 7.90269 14.5817 10.0781C14.5817 12.5354 13.3406 14.239 11.7274 14.239C10.8349 14.239 10.1666 13.5012 10.3841 12.597C10.6423 11.5158 11.1376 10.352 11.1376 9.57491C11.1376 8.87903 10.7655 8.29716 9.98701 8.29716C9.07358 8.29716 8.34493 9.23942 8.34493 10.5041C8.34493 11.3061 8.6149 11.8513 8.6149 11.8513C8.6149 11.8513 7.71327 15.6557 7.54945 16.3647C7.36467 17.151 7.43937 18.2531 7.51669 18.97C5.81514 18.3061 4.35363 17.1441 3.32339 15.6359C2.29315 14.1277 1.74218 12.3436 1.74256 10.5172C1.74282 8.72106 2.27565 6.96535 3.27368 5.47205C4.2717 3.97874 5.69011 2.8149 7.34955 2.12768C9.009 1.44045 10.8349 1.26071 12.5965 1.61118C14.3581 1.96165 15.9762 2.82659 17.2463 4.09663C18.5163 5.36667 19.3813 6.98479 19.7317 8.74638C20.0822 10.508 19.9025 12.3339 19.2152 13.9934C18.528 15.6528 17.3642 17.0712 15.8709 18.0692C14.3776 19.0673 12.6219 19.6001 10.8257 19.6004L10.8284 19.599Z" fill="#333333"/>
</svg>
