<svg width="22" height="21" viewBox="0 0 22 21" fill="none" xmlns="http://www.w3.org/2000/svg">
<g clip-path="url(#clip0)">
<path fill-rule="evenodd" clip-rule="evenodd" d="M21.3761 9.984C21.2311 4.46392 16.6861 0.0317383 11.0854 0.0317383C5.55728 0.0317383 1.04452 4.35916 0.802763 9.79865C0.794705 9.95177 0.794705 10.0968 0.794705 10.2499C0.794705 12.184 1.33462 13.981 2.26941 15.5283L0.415955 21L6.11332 19.1868C7.58803 19.9927 9.28032 20.4601 11.0854 20.4601C16.7747 20.4601 21.3761 15.8909 21.3761 10.2419C21.3761 10.1613 21.3761 10.0726 21.3761 9.984ZM11.0854 18.8322C9.32867 18.8322 7.69279 18.3084 6.32284 17.4139L2.99468 18.4777L4.07452 15.2865C3.03497 13.8682 2.43058 12.1276 2.43058 10.2499C2.43058 9.96788 2.4467 9.69389 2.47087 9.4199C2.89798 5.07637 6.59683 1.66762 11.0774 1.66762C15.6224 1.66762 19.3535 5.15695 19.7 9.58107C19.7161 9.80671 19.7322 10.0243 19.7322 10.2499C19.7403 14.9803 15.8561 18.8322 11.0854 18.8322Z" fill="#333333"/>
<path fill-rule="evenodd" clip-rule="evenodd" d="M15.8078 12.3048C15.55 12.1758 14.317 11.5715 14.0833 11.4909C13.8496 11.4022 13.6804 11.3619 13.5112 11.6198C13.3419 11.8696 12.8584 12.4337 12.7134 12.5949C12.5603 12.7641 12.4233 12.7802 12.1654 12.6594C11.9156 12.5304 11.1017 12.2725 10.1346 11.4183C9.3852 10.7575 8.87751 9.93558 8.73246 9.68577C8.58741 9.43595 8.71634 9.29896 8.84528 9.17808C8.9581 9.06526 9.09509 8.88797 9.22403 8.74292C9.25626 8.70263 9.2885 8.66234 9.31267 8.62204C9.36908 8.5334 9.41743 8.44476 9.47384 8.32388C9.56249 8.15465 9.51414 8.0096 9.45773 7.88872C9.39326 7.75978 8.88557 6.52683 8.67605 6.0272C8.46653 5.51952 8.25701 5.60816 8.1039 5.60816C7.95884 5.60816 7.78961 5.58398 7.62039 5.58398C7.45116 5.58398 7.17717 5.64845 6.94347 5.89827C6.71783 6.14808 6.06509 6.75247 6.06509 7.98542C6.06509 8.27553 6.1215 8.56563 6.19403 8.83962C6.4519 9.718 6.99988 10.4513 7.09658 10.5722C7.22552 10.7334 8.83722 13.3443 11.3998 14.3516C13.9705 15.3509 13.9705 15.0124 14.4298 14.9721C14.8892 14.9319 15.9207 14.3678 16.1302 13.7795C16.3397 13.1993 16.3397 12.6916 16.2833 12.5868C16.2269 12.4982 16.0576 12.4337 15.8078 12.3048Z" fill="#333333"/>
</g>
<defs>
<clipPath id="clip0">
<rect x="0.415955" y="0.0317383" width="20.9602" height="20.9682" fill="white"/>
</clipPath>
</defs>
</svg>
